<svg width="465" height="129" viewBox="0 0 465 129" fill="none" xmlns="http://www.w3.org/2000/svg">
<g filter="url(#filter0_d_2_4)">
<path d="M147.192 99.904C149.688 99.904 152.088 98.56 154.392 95.872L156.552 97.6C156.264 97.984 155.88 98.464 155.4 99.04C154.92 99.616 153.72 100.384 151.8 101.344C149.976 102.304 147.96 102.784 145.752 102.784C135 102.784 129.624 98.128 129.624 88.816C129.624 85.936 129.96 81.664 130.632 76C126.024 77.44 121.896 78.16 118.248 78.16C111.816 78.16 105.384 76.192 98.952 72.256C95.208 78.688 91.704 84.208 88.44 88.816C85.176 93.328 81.384 97.744 77.064 102.064C68.136 110.8 57.336 115.168 44.664 115.168C32.088 115.168 22.056 111.136 14.568 103.072C7.944 95.68 4.632 86.704 4.632 76.144C4.632 65.488 8.04 56.032 14.856 47.776C21.672 39.52 30.504 35.392 41.352 35.392C52.2 35.392 60.456 38.608 66.12 45.04C67.464 46.768 68.424 48.064 69 48.928C74.184 51.136 80.088 54.784 86.712 59.872C91.704 63.904 95.4 66.688 97.8 68.224C99.144 65.728 100.968 62.368 103.272 58.144C105.672 53.92 107.496 50.704 108.744 48.496C109.992 46.288 111.864 43.168 114.36 39.136C116.856 35.104 118.872 32.08 120.408 30.064C122.04 27.952 124.152 25.36 126.744 22.288C129.432 19.12 131.88 16.768 134.088 15.232C140.712 10.528 146.28 7.792 150.792 7.024C153.288 6.63999 155.4 6.44799 157.128 6.44799C158.856 6.44799 160.776 6.49599 162.888 6.59199C165 6.59199 167.976 7.11999 171.816 8.176L171.096 10.912C168.792 10.24 166.344 9.75999 163.752 9.472C154.152 47.2 148.632 77.344 147.192 99.904ZM73.608 65.632C73.608 72.736 71.544 79.024 67.416 84.496C63.384 89.968 57.912 92.704 51 92.704C46.488 92.704 42.792 91.36 39.912 88.672C37.128 85.984 35.736 83.2 35.736 80.32C35.736 77.44 36.168 75.088 37.032 73.264C37.896 71.344 38.856 69.904 39.912 68.944C41.064 67.984 42.312 67.216 43.656 66.64C45.48 65.68 46.92 65.2 47.976 65.2L48.264 68.08C45.864 68.08 43.656 69.232 41.64 71.536C39.624 73.84 38.616 76.432 38.616 79.312C38.616 82.192 39.72 84.688 41.928 86.8C44.232 88.816 47.256 89.824 51 89.824C57.144 89.824 61.992 87.424 65.544 82.624C69.096 77.824 70.872 72.496 70.872 66.64C70.872 60.784 69.672 55.696 67.272 51.376C61.992 49.36 56.76 48.352 51.576 48.352C41.592 48.352 34.536 53.008 30.408 62.32L27.672 61.456C28.728 59.056 30.408 56.464 32.712 53.68C37.224 48.208 43.512 45.472 51.576 45.472C55.896 45.472 60.168 46.096 64.392 47.344L64.104 46.912C58.824 41.152 51.192 38.272 41.208 38.272C31.32 38.272 23.208 42.112 16.872 49.792C10.632 57.472 7.512 66.304 7.512 76.288C7.512 86.176 10.584 94.432 16.728 101.056C23.64 108.544 33.288 112.288 45.672 112.288C57 112.288 66.888 108.016 75.336 99.472C79.56 95.344 83.208 91.072 86.28 86.656C89.448 82.24 92.856 76.912 96.504 70.672C93.24 68.56 89.256 65.68 84.552 62.032C79.944 58.288 75.48 55.312 71.16 53.104C72.792 57.136 73.608 61.312 73.608 65.632ZM100.392 69.808C106.536 73.456 112.152 75.28 117.24 75.28C122.424 75.28 127.032 74.464 131.064 72.832C133.368 56.608 137.688 36.448 144.024 12.352C136.344 16 129.288 22.48 122.856 31.792C118.152 38.512 112.488 47.872 105.864 59.872L100.392 69.808ZM179.94 40.864C177.636 40.864 175.236 42.208 172.74 44.896L170.58 43.168C171.252 41.824 172.74 40.624 175.044 39.568C177.348 38.512 179.892 37.984 182.676 37.984C191.412 37.984 195.78 41.92 195.78 49.792C195.78 53.152 194.868 58.672 193.044 66.352C191.22 73.936 190.308 79.072 190.308 81.76C190.308 86.368 192.228 88.672 196.068 88.672C199.236 88.672 202.308 86.512 205.284 82.192C208.356 77.872 210.852 72.064 212.772 64.768L217.524 39.28C224.628 39.28 229.812 38.992 233.076 38.416L234.948 37.984L225.876 88.96C224.148 98.848 220.116 106.576 213.78 112.144C207.54 117.712 199.428 120.496 189.444 120.496C183.396 120.496 178.692 119.44 175.332 117.328C172.068 115.312 170.436 112.624 170.436 109.264C170.436 106 171.444 103.36 173.46 101.344C175.476 99.424 178.308 98.464 181.956 98.464C185.7 98.464 189.156 99.04 192.324 100.192C195.492 101.44 197.796 102.16 199.236 102.352L198.948 104.944C197.316 104.752 194.964 104.08 191.892 102.928C188.82 101.776 185.748 101.2 182.676 101.2C179.7 101.2 177.396 101.872 175.764 103.216C174.228 104.56 173.46 106.48 173.46 108.976C173.46 111.568 174.852 113.632 177.636 115.168C180.42 116.8 183.876 117.616 188.004 117.616C197.988 117.616 204.132 111.616 206.436 99.616L210.036 79.744C206.004 88.576 199.908 92.992 191.748 92.992C186.18 92.992 181.86 91.408 178.788 88.24C175.812 85.072 174.324 80.608 174.324 74.848C174.324 71.872 175.188 66.544 176.916 58.864C178.74 51.088 179.748 45.088 179.94 40.864ZM267.261 90.112C264.381 93.568 260.781 95.296 256.461 95.296C252.141 95.296 248.733 94.192 246.237 91.984C243.837 89.776 242.637 86.896 242.637 83.344C242.637 82.096 243.405 76.864 244.941 67.648L249.693 41.872H243.645L243.933 39.28H250.125C257.229 39.28 262.461 38.992 265.821 38.416L267.837 37.984L257.901 92.416C260.781 92.128 263.181 90.784 265.101 88.384L267.261 90.112ZM254.589 24.16C252.573 22.144 251.565 19.696 251.565 16.816C251.565 13.936 252.573 11.488 254.589 9.472C256.605 7.36 259.053 6.304 261.933 6.304C264.813 6.304 267.261 7.36 269.277 9.472C271.389 11.488 272.445 13.936 272.445 16.816C272.445 19.696 271.389 22.144 269.277 24.16C267.261 26.176 264.813 27.184 261.933 27.184C259.053 27.184 256.605 26.176 254.589 24.16ZM289.032 91.552C298.536 91.552 303.288 84.544 303.288 70.528C303.288 67.072 302.76 62.992 301.704 58.288C300.744 53.584 300.168 50.656 299.976 49.504C294.12 55.552 287.544 59.2 280.248 60.448V56.992C287.16 55.456 293.64 51.52 299.688 45.184V44.608C299.688 42.304 300.024 40.048 300.696 37.84C301.368 35.632 302.04 34 302.712 32.944L303.72 31.36H307.176C307.176 35.584 307.848 39.472 309.192 43.024C310.536 46.48 312.024 49.312 313.656 51.52C315.288 53.632 316.776 56.464 318.12 60.016C319.464 63.472 320.136 67.312 320.136 71.536C320.136 78.352 317.544 84.016 312.36 88.528C307.272 93.04 301.128 95.296 293.928 95.296C286.728 95.296 281.256 93.664 277.512 90.4C273.864 87.136 272.04 83.392 272.04 79.168C272.04 74.848 273.096 71.776 275.208 69.952C277.32 68.032 279.816 67.072 282.696 67.072C285.576 67.072 287.928 68.032 289.752 69.952C291.672 71.776 292.632 74.176 292.632 77.152C292.632 80.032 291.72 82.48 289.896 84.496C288.072 86.512 285.72 87.52 282.84 87.52C281.592 87.52 280.296 87.328 278.952 86.944C281.064 90.016 284.424 91.552 289.032 91.552ZM382.512 92.416C384.816 92.416 387.216 91.072 389.712 88.384L391.872 90.112C391.2 91.456 389.712 92.656 387.408 93.712C385.104 94.768 382.56 95.296 379.776 95.296C371.04 95.296 366.672 91.36 366.672 83.488C366.672 80.128 367.536 74.128 369.264 65.488C370.992 56.848 371.856 51.184 371.856 48.496C371.856 44.368 369.888 42.304 365.952 42.304C362.688 42.304 359.52 44.512 356.448 48.928C353.472 53.344 351.024 59.344 349.104 66.928L344.352 94H327.072L343.056 3.568C340.176 3.856 337.776 5.2 335.856 7.6L333.696 5.87199C336.576 2.416 340.176 0.688 344.496 0.688C348.912 0.688 352.32 1.792 354.72 4C357.12 6.20799 358.32 9.32799 358.32 13.36C358.32 14.128 358.224 15.376 358.032 17.104L351.984 51.232C355.92 42.4 362.016 37.984 370.272 37.984C375.936 37.984 380.352 39.616 383.52 42.88C386.688 46.048 388.272 50.464 388.272 56.128C388.272 59.104 387.36 64.864 385.536 73.408C383.712 81.856 382.704 88.192 382.512 92.416ZM449.516 95.296C441.068 95.296 436.46 91.6 435.692 84.208C431.468 91.6 426.14 95.296 419.708 95.296C413.276 95.296 408.14 93.376 404.3 89.536C400.556 85.6 398.684 80.128 398.684 73.12C398.684 62.176 401.372 53.584 406.748 47.344C412.124 41.104 419.084 37.984 427.628 37.984C434.636 37.984 439.292 41.296 441.596 47.92C442.076 45.04 442.604 42.16 443.18 39.28C450.284 39.28 455.564 38.992 459.02 38.416L460.892 37.984L450.956 92.416C453.836 92.128 456.236 90.784 458.156 88.384L460.316 90.112C457.436 93.568 453.836 95.296 449.516 95.296ZM414.956 80.464C414.956 84.784 415.484 87.808 416.54 89.536C417.692 91.168 419.42 91.984 421.724 91.984C424.028 91.984 426.38 90.736 428.78 88.24C431.948 84.976 434.492 80.848 436.412 75.856C436.7 74.608 437.228 71.632 437.996 66.928C438.86 62.128 439.58 58.192 440.156 55.12C439.868 51.472 438.86 48.304 437.132 45.616C435.404 42.928 433.244 41.584 430.652 41.584C425.948 41.584 422.156 45.808 419.276 54.256C416.396 62.608 414.956 71.344 414.956 80.464Z" fill="#0D1042" fill-opacity="0.94" shape-rendering="crispEdges"/>
<path d="M147.192 99.904L146.194 99.8403L146.126 100.904H147.192V99.904ZM154.392 95.872L155.017 95.0911L154.262 94.4873L153.633 95.2212L154.392 95.872ZM156.552 97.6L157.352 98.2L157.934 97.4246L157.177 96.8191L156.552 97.6ZM155.4 99.04L154.632 98.3998L154.632 98.3998L155.4 99.04ZM151.8 101.344L151.353 100.45L151.343 100.454L151.334 100.459L151.8 101.344ZM130.632 76L131.625 76.1178L131.807 74.5852L130.334 75.0455L130.632 76ZM98.952 72.256L99.474 71.403L98.602 70.8695L98.0878 71.7529L98.952 72.256ZM88.44 88.816L89.2503 89.4021L89.256 89.394L88.44 88.816ZM77.064 102.064L77.7634 102.779L77.7711 102.771L77.064 102.064ZM14.568 103.072L13.8233 103.739L13.8292 103.746L13.8352 103.752L14.568 103.072ZM66.12 45.04L66.9094 44.4261L66.8906 44.402L66.8705 44.3791L66.12 45.04ZM69 48.928L68.1679 49.4827L68.3335 49.7311L68.6081 49.848L69 48.928ZM86.712 59.872L87.3403 59.0941L87.3308 59.0864L87.3212 59.0789L86.712 59.872ZM97.8 68.224L97.261 69.0663L98.1692 69.6476L98.6805 68.6981L97.8 68.224ZM103.272 58.144L102.403 57.65L102.398 57.6575L102.394 57.6651L103.272 58.144ZM114.36 39.136L115.21 39.6624L115.21 39.6624L114.36 39.136ZM120.408 30.064L119.617 29.4525L119.613 29.458L120.408 30.064ZM126.744 22.288L125.981 21.641L125.98 21.6431L126.744 22.288ZM134.088 15.232L134.659 16.0529L134.667 16.0473L134.088 15.232ZM150.792 7.024L150.64 6.03562L150.632 6.03684L150.624 6.03817L150.792 7.024ZM162.888 6.59199L162.843 7.59096L162.865 7.59199H162.888V6.59199ZM171.816 8.176L172.783 8.43049L173.035 7.47404L172.081 7.21179L171.816 8.176ZM171.096 10.912L170.816 11.872L171.802 12.1595L172.063 11.1665L171.096 10.912ZM163.752 9.472L163.862 8.47811L162.998 8.38201L162.783 9.2254L163.752 9.472ZM67.416 84.496L66.6176 83.8937L66.6109 83.9028L67.416 84.496ZM39.912 88.672L39.2174 89.3914L39.2235 89.3973L39.2297 89.4031L39.912 88.672ZM37.032 73.264L37.9357 73.6921L37.9399 73.6833L37.9439 73.6744L37.032 73.264ZM39.912 68.944L39.2718 68.1758L39.2553 68.1896L39.2393 68.2041L39.912 68.944ZM43.656 66.64L44.0499 67.5591L44.0865 67.5435L44.1217 67.5249L43.656 66.64ZM47.976 65.2L48.971 65.1005L48.881 64.2H47.976V65.2ZM48.264 68.08V69.08H49.369L49.259 67.9805L48.264 68.08ZM41.64 71.536L40.8874 70.8775L40.8874 70.8775L41.64 71.536ZM41.928 86.8L41.2368 87.5226L41.2528 87.538L41.2695 87.5526L41.928 86.8ZM65.544 82.624L66.3478 83.2188L65.544 82.624ZM67.272 51.376L68.1462 50.8904L67.9692 50.5718L67.6287 50.4418L67.272 51.376ZM30.408 62.32L30.1069 63.2736L30.9597 63.5429L31.3222 62.7253L30.408 62.32ZM27.672 61.456L26.7567 61.0533L26.3076 62.0738L27.3709 62.4096L27.672 61.456ZM32.712 53.68L33.4824 54.3176L33.4835 54.3162L32.712 53.68ZM64.392 47.344L64.1087 48.303L66.7543 49.0847L65.2241 46.7893L64.392 47.344ZM64.104 46.912L64.9361 46.3573L64.8933 46.2931L64.8412 46.2363L64.104 46.912ZM16.872 49.792L16.1006 49.1556L16.0959 49.1614L16.872 49.792ZM16.728 101.056L17.4628 100.378L17.4612 100.376L16.728 101.056ZM75.336 99.472L74.6371 98.7568L74.6309 98.7628L74.6249 98.7689L75.336 99.472ZM86.28 86.656L85.4675 86.0731L85.4632 86.079L85.4591 86.0849L86.28 86.656ZM96.504 70.672L97.3673 71.1767L97.8497 70.3516L97.0473 69.8324L96.504 70.672ZM84.552 62.032L83.9214 62.8081L83.9302 62.8153L83.9392 62.8222L84.552 62.032ZM71.16 53.104L71.6151 52.2136L69.2267 50.9928L70.2331 53.4792L71.16 53.104ZM100.392 69.808L99.5161 69.3256L99.049 70.1736L99.8815 70.6679L100.392 69.808ZM131.064 72.832L131.439 73.7589L131.973 73.5428L132.054 72.9726L131.064 72.832ZM144.024 12.352L144.991 12.6063L145.538 10.5257L143.595 11.4487L144.024 12.352ZM122.856 31.792L123.675 32.3655L123.679 32.3603L122.856 31.792ZM105.864 59.872L104.989 59.3887L104.988 59.3896L105.864 59.872ZM147.192 100.904C150.086 100.904 152.74 99.3364 155.151 96.5228L153.633 95.2212C151.436 97.7836 149.29 98.904 147.192 98.904V100.904ZM153.767 96.6529L155.927 98.3809L157.177 96.8191L155.017 95.0911L153.767 96.6529ZM155.752 97C155.478 97.365 155.106 97.8305 154.632 98.3998L156.168 99.6802C156.654 99.0975 157.05 98.603 157.352 98.2L155.752 97ZM154.632 98.3998C154.492 98.5671 154.178 98.8367 153.601 99.2057C153.041 99.5638 152.295 99.9783 151.353 100.45L152.247 102.238C153.225 101.75 154.039 101.3 154.679 100.89C155.302 100.491 155.828 100.089 156.168 99.6802L154.632 98.3998ZM151.334 100.459C149.664 101.338 147.81 101.784 145.752 101.784V103.784C148.11 103.784 150.288 103.27 152.266 102.229L151.334 100.459ZM145.752 101.784C140.498 101.784 136.744 100.643 134.311 98.5361C131.905 96.4527 130.624 93.2774 130.624 88.816H128.624C128.624 93.6666 130.031 97.4753 133.001 100.048C135.944 102.597 140.254 103.784 145.752 103.784V101.784ZM130.624 88.816C130.624 85.9971 130.954 81.7727 131.625 76.1178L129.639 75.8822C128.966 81.5553 128.624 85.8749 128.624 88.816H130.624ZM130.334 75.0455C125.793 76.4645 121.768 77.16 118.248 77.16V79.16C122.024 79.16 126.255 78.4155 130.93 76.9545L130.334 75.0455ZM118.248 77.16C112.03 77.16 105.776 75.2597 99.474 71.403L98.43 73.109C104.992 77.1243 111.602 79.16 118.248 79.16V77.16ZM98.0878 71.7529C94.3543 78.1668 90.8664 83.6604 87.624 88.238L89.256 89.394C92.5416 84.7556 96.0617 79.2092 99.8162 72.7591L98.0878 71.7529ZM87.6298 88.2299C84.3997 92.695 80.6429 97.0709 76.3569 101.357L77.7711 102.771C82.1251 98.4171 85.9523 93.961 89.2502 89.4021L87.6298 88.2299ZM76.3646 101.349C67.6265 109.899 57.0788 114.168 44.664 114.168V116.168C57.5932 116.168 68.6455 111.701 77.7634 102.779L76.3646 101.349ZM44.664 114.168C32.3224 114.168 22.5718 110.222 15.3008 102.392L13.8352 103.752C21.5402 112.05 31.8536 116.168 44.664 116.168V114.168ZM15.3127 102.405C8.86421 95.2085 5.632 86.4749 5.632 76.144H3.632C3.632 86.9331 7.02379 96.1515 13.8233 103.739L15.3127 102.405ZM5.632 76.144C5.632 65.7215 8.95832 56.4904 15.6272 48.4126L14.0848 47.1393C7.12168 55.5736 3.632 65.2544 3.632 76.144H5.632ZM15.6272 48.4126C22.2503 40.3903 30.7978 36.392 41.352 36.392V34.392C30.2102 34.392 21.0937 38.6497 14.0848 47.1393L15.6272 48.4126ZM41.352 36.392C51.9947 36.392 59.9435 39.5392 65.3695 45.7009L66.8705 44.3791C60.9685 37.6768 52.4053 34.392 41.352 34.392V36.392ZM65.3307 45.6539C66.6723 47.3789 67.6134 48.6508 68.1679 49.4827L69.8321 48.3733C69.2346 47.4772 68.2557 46.1571 66.9094 44.4261L65.3307 45.6539ZM68.6081 49.848C73.6871 52.0113 79.5168 55.6062 86.1028 60.665L87.3212 59.0789C80.6592 53.9618 74.6809 50.2607 69.3919 48.008L68.6081 49.848ZM86.0837 60.6499C91.0779 64.6838 94.8108 67.4982 97.261 69.0663L98.3391 67.3817C95.9892 65.8778 92.3301 63.1242 87.3403 59.0941L86.0837 60.6499ZM98.6805 68.6981C100.023 66.2044 101.846 62.8462 104.15 58.6229L102.394 57.6651C100.09 61.8898 98.2648 65.2516 96.9195 67.7499L98.6805 68.6981ZM104.141 58.638C106.542 54.4138 108.366 51.1971 109.615 48.9881L107.873 48.0039C106.626 50.2109 104.802 53.4262 102.403 57.65L104.141 58.638ZM109.615 48.9881C110.853 46.7976 112.716 43.6909 115.21 39.6624L113.51 38.6096C111.012 42.6451 109.131 45.7784 107.873 48.0039L109.615 48.9881ZM115.21 39.6624C117.701 35.6386 119.697 32.6471 121.203 30.67L119.613 29.458C118.047 31.5128 116.011 34.5694 113.51 38.6096L115.21 39.6624ZM121.199 30.6754C122.819 28.5789 124.921 25.9988 127.508 22.9329L125.98 21.6431C123.383 24.7212 121.261 27.3251 119.617 29.4525L121.199 30.6754ZM127.507 22.935C130.165 19.8013 132.55 17.5203 134.659 16.0529L133.517 14.4111C131.21 16.0157 128.699 18.4387 125.981 21.641L127.507 22.935ZM134.667 16.0473C141.249 11.3729 146.67 8.74004 150.96 8.00982L150.624 6.03817C145.89 6.84396 140.175 9.68308 133.509 14.4167L134.667 16.0473ZM150.944 8.01237C153.41 7.63292 155.468 7.44799 157.128 7.44799V5.44799C155.332 5.44799 153.166 5.64707 150.64 6.03562L150.944 8.01237ZM157.128 7.44799C158.838 7.44799 160.743 7.4955 162.843 7.59096L162.933 5.59302C160.809 5.49648 158.874 5.44799 157.128 5.44799V7.44799ZM162.888 7.59199C164.863 7.59199 167.735 8.09092 171.551 9.1402L172.081 7.21179C168.217 6.14907 165.137 5.59199 162.888 5.59199V7.59199ZM170.849 7.9215L170.129 10.6575L172.063 11.1665L172.783 8.43049L170.849 7.9215ZM171.376 9.952C169.012 9.2625 166.507 8.77194 163.862 8.47811L163.642 10.4659C166.181 10.748 168.572 11.2175 170.816 11.872L171.376 9.952ZM162.783 9.2254C153.177 46.9771 147.64 77.19 146.194 99.8403L148.19 99.9677C149.624 77.498 155.127 47.4229 164.721 9.71859L162.783 9.2254ZM72.608 65.632C72.608 72.5272 70.6098 78.6019 66.6177 83.8938L68.2143 85.0982C72.4782 79.4461 74.608 72.9448 74.608 65.632H72.608ZM66.6109 83.9028C62.7712 89.1139 57.6006 91.704 51 91.704V93.704C58.2234 93.704 63.9968 90.8221 68.2211 85.0892L66.6109 83.9028ZM51 91.704C46.7017 91.704 43.2621 90.4309 40.5943 87.9409L39.2297 89.4031C42.3219 92.2891 46.2743 93.704 51 93.704V91.704ZM40.6066 87.9526C37.9483 85.3859 36.736 82.8453 36.736 80.32H34.736C34.736 83.5547 36.3077 86.5821 39.2174 89.3914L40.6066 87.9526ZM36.736 80.32C36.736 77.5293 37.1562 75.3377 37.9357 73.6921L36.1283 72.8359C35.1798 74.8382 34.736 77.3507 34.736 80.32H36.736ZM37.9439 73.6744C38.7761 71.8252 39.6665 70.5186 40.5847 69.6839L39.2393 68.2041C38.0455 69.2894 37.0159 70.8628 36.1201 72.8536L37.9439 73.6744ZM40.5522 69.7122C41.6317 68.8126 42.7971 68.096 44.0499 67.5591L43.2621 65.7209C41.8269 66.3359 40.4963 67.1554 39.2718 68.1758L40.5522 69.7122ZM44.1217 67.5249C45.9142 66.5815 47.1738 66.2 47.976 66.2V64.2C46.6662 64.2 45.0458 64.7785 43.1903 65.7551L44.1217 67.5249ZM46.981 65.2995L47.269 68.1795L49.259 67.9805L48.971 65.1005L46.981 65.2995ZM48.264 67.08C45.5002 67.08 43.0372 68.4206 40.8874 70.8775L42.3926 72.1945C44.2748 70.0434 46.2279 69.08 48.264 69.08V67.08ZM40.8874 70.8775C38.7228 73.3513 37.616 76.1737 37.616 79.312H39.616C39.616 76.6903 40.5252 74.3287 42.3926 72.1945L40.8874 70.8775ZM37.616 79.312C37.616 82.483 38.845 85.2348 41.2368 87.5226L42.6192 86.0774C40.595 84.1412 39.616 81.901 39.616 79.312H37.616ZM41.2695 87.5526C43.7941 89.7616 47.0701 90.824 51 90.824V88.824C47.4419 88.824 44.6699 87.8704 42.5865 86.0474L41.2695 87.5526ZM51 90.824C57.4502 90.824 62.6009 88.2822 66.3478 83.2188L64.7402 82.0292C61.3831 86.5658 56.8378 88.824 51 88.824V90.824ZM66.3478 83.2188C70.0245 78.2503 71.872 72.7147 71.872 66.64H69.872C69.872 72.2773 68.1675 77.3977 64.7402 82.0292L66.3478 83.2188ZM71.872 66.64C71.872 60.6455 70.6427 55.3842 68.1462 50.8904L66.3978 51.8616C68.7013 56.0078 69.872 60.9225 69.872 66.64H71.872ZM67.6287 50.4418C62.2451 48.3862 56.8925 47.352 51.576 47.352V49.352C56.6275 49.352 61.7389 50.3338 66.9153 52.3102L67.6287 50.4418ZM51.576 47.352C46.4243 47.352 41.9644 48.5552 38.2452 51.0093C34.5274 53.4626 31.6193 57.12 29.4938 61.9147L31.3222 62.7253C33.3247 58.208 36.0086 54.8814 39.3468 52.6787C42.6836 50.4768 46.7437 49.352 51.576 49.352V47.352ZM30.7091 61.3664L27.9731 60.5024L27.3709 62.4096L30.1069 63.2736L30.7091 61.3664ZM28.5873 61.8587C29.595 59.5685 31.2168 57.0552 33.4824 54.3176L31.9416 53.0424C29.5992 55.8728 27.861 58.5435 26.7567 61.0533L28.5873 61.8587ZM33.4835 54.3162C37.7781 49.1078 43.7646 46.472 51.576 46.472V44.472C43.2594 44.472 36.6699 47.3082 31.9405 53.0438L33.4835 54.3162ZM51.576 46.472C55.7982 46.472 59.9748 47.0817 64.1087 48.303L64.6753 46.385C60.3612 45.1103 55.9938 44.472 51.576 44.472V46.472ZM65.2241 46.7893L64.9361 46.3573L63.272 47.4667L63.56 47.8987L65.2241 46.7893ZM64.8412 46.2363C59.3222 40.2156 51.3895 37.272 41.208 37.272V39.272C50.9945 39.272 58.3258 42.0884 63.3668 47.5877L64.8412 46.2363ZM41.208 37.272C31.0191 37.272 22.6251 41.2472 16.1006 49.1556L17.6434 50.4284C23.7909 42.9768 31.6209 39.272 41.208 39.272V37.272ZM16.0959 49.1614C9.70965 57.0214 6.512 66.0766 6.512 76.288H8.512C8.512 66.5314 11.5544 57.9226 17.6481 50.4226L16.0959 49.1614ZM6.512 76.288C6.512 86.4023 9.66247 94.909 15.9948 101.736L17.4612 100.376C11.5055 93.955 8.512 85.9497 8.512 76.288H6.512ZM15.9932 101.734C23.1344 109.471 33.0738 113.288 45.672 113.288V111.288C33.5022 111.288 24.1456 107.617 17.4628 100.378L15.9932 101.734ZM45.672 113.288C57.2847 113.288 67.4239 108.896 76.0471 100.175L74.6249 98.7689C66.3521 107.136 56.7153 111.288 45.672 111.288V113.288ZM76.0349 100.187C80.2997 96.0193 83.9896 91.6996 87.1009 87.2271L85.4591 86.0849C82.4264 90.4444 78.8203 94.6687 74.6371 98.7568L76.0349 100.187ZM87.0925 87.2389C90.2834 82.791 93.7084 77.4354 97.3673 71.1767L95.6407 70.1673C92.0036 76.3886 88.6126 81.689 85.4675 86.0731L87.0925 87.2389ZM97.0473 69.8324C93.8161 67.7417 89.8568 64.8804 85.1648 61.2418L83.9392 62.8222C88.6552 66.4796 92.6639 69.3783 95.9608 71.5116L97.0473 69.8324ZM85.1826 61.2559C80.5318 57.4771 76.0095 54.4596 71.6151 52.2136L70.7049 53.9944C74.9505 56.1644 79.3562 59.0988 83.9214 62.8081L85.1826 61.2559ZM70.2331 53.4792C71.8171 57.3928 72.608 61.4415 72.608 65.632H74.608C74.608 61.1825 73.7669 56.8792 72.087 52.7288L70.2331 53.4792ZM99.8815 70.6679C106.121 74.3723 111.914 76.28 117.24 76.28V74.28C112.39 74.28 106.951 72.5397 100.903 68.9481L99.8815 70.6679ZM117.24 76.28C122.528 76.28 127.267 75.4475 131.439 73.7589L130.689 71.9051C126.797 73.4805 122.32 74.28 117.24 74.28V76.28ZM132.054 72.9726C134.351 56.8011 138.66 36.682 144.991 12.6063L143.057 12.0977C136.716 36.214 132.385 56.4149 130.074 72.6914L132.054 72.9726ZM143.595 11.4487C135.713 15.1928 128.533 21.8136 122.033 31.2237L123.679 32.3603C130.043 23.1464 136.975 16.8072 144.453 13.2553L143.595 11.4487ZM122.037 31.2185C117.303 37.9804 111.62 47.3753 104.989 59.3887L106.739 60.3553C113.356 48.3687 119.001 39.0436 123.675 32.3655L122.037 31.2185ZM104.988 59.3896L99.5161 69.3256L101.268 70.2904L106.74 60.3544L104.988 59.3896ZM179.94 40.864L180.939 40.9094L180.986 39.864H179.94V40.864ZM172.74 44.896L172.115 45.6769L172.84 46.2572L173.472 45.5764L172.74 44.896ZM170.58 43.168L169.685 42.7208L169.324 43.4439L169.955 43.9489L170.58 43.168ZM193.044 66.352L194.016 66.5858L194.017 66.5831L193.044 66.352ZM205.284 82.192L204.469 81.6125L204.464 81.6186L204.46 81.6247L205.284 82.192ZM212.772 64.768L213.739 65.0225L213.748 64.9872L213.755 64.9513L212.772 64.768ZM217.524 39.28V38.28H216.693L216.541 39.0967L217.524 39.28ZM233.076 38.416L233.249 39.4008L233.275 39.3963L233.3 39.3904L233.076 38.416ZM234.948 37.984L235.932 38.1592L236.197 36.6693L234.723 37.0096L234.948 37.984ZM225.876 88.96L224.891 88.7848L224.891 88.7879L225.876 88.96ZM213.78 112.144L213.119 111.393L213.114 111.398L213.78 112.144ZM175.332 117.328L175.864 116.481L175.857 116.477L175.332 117.328ZM173.46 101.344L172.77 100.62L172.761 100.628L172.753 100.637L173.46 101.344ZM192.324 100.192L192.69 99.2616L192.678 99.2567L192.665 99.2522L192.324 100.192ZM199.236 102.352L200.23 102.462L200.338 101.49L199.368 101.361L199.236 102.352ZM198.948 104.944L198.831 105.937L199.83 106.055L199.942 105.054L198.948 104.944ZM191.892 102.928L191.541 103.864L191.541 103.864L191.892 102.928ZM175.764 103.216L175.128 102.444L175.116 102.454L175.105 102.463L175.764 103.216ZM177.636 115.168L178.141 114.305L178.13 114.299L178.119 114.292L177.636 115.168ZM206.436 99.616L207.418 99.8046L207.42 99.7943L206.436 99.616ZM210.036 79.744L211.02 79.9223L209.126 79.3287L210.036 79.744ZM178.788 88.24L178.059 88.9247L178.064 88.9305L178.07 88.9361L178.788 88.24ZM176.916 58.864L175.942 58.6356L175.94 58.6445L176.916 58.864ZM179.94 39.864C177.23 39.864 174.583 41.4415 172.007 44.2155L173.472 45.5764C175.888 42.9745 178.041 41.864 179.94 41.864V39.864ZM173.364 44.1151L171.204 42.3871L169.955 43.9489L172.115 45.6769L173.364 44.1151ZM171.474 43.6152C171.995 42.574 173.234 41.4976 175.46 40.4771L174.627 38.6589C172.246 39.7504 170.509 41.074 169.685 42.7208L171.474 43.6152ZM175.46 40.4771C177.621 39.4867 180.021 38.984 182.676 38.984V36.984C179.762 36.984 177.074 37.5373 174.627 38.6589L175.46 40.4771ZM182.676 38.984C186.914 38.984 189.906 39.941 191.834 41.6789C193.743 43.399 194.78 46.0386 194.78 49.792H196.78C196.78 45.6734 195.632 42.409 193.173 40.1931C190.734 37.995 187.174 36.984 182.676 36.984V38.984ZM194.78 49.792C194.78 53.0237 193.894 58.4427 192.071 66.1209L194.017 66.5831C195.841 58.9013 196.78 53.2803 196.78 49.792H194.78ZM192.071 66.1182C190.251 73.6851 189.308 78.9346 189.308 81.76H191.308C191.308 79.2094 192.188 74.1869 194.016 66.5858L192.071 66.1182ZM189.308 81.76C189.308 84.1782 189.808 86.1781 190.979 87.5842C192.18 89.0252 193.941 89.672 196.068 89.672V87.672C194.355 87.672 193.235 87.1668 192.516 86.3038C191.768 85.4059 191.308 83.9498 191.308 81.76H189.308ZM196.068 89.672C199.735 89.672 203.068 87.171 206.107 82.7593L204.46 81.6247C201.547 85.853 198.737 87.672 196.068 87.672V89.672ZM206.099 82.7715C209.263 78.3211 211.8 72.3897 213.739 65.0225L211.805 64.5135C209.903 71.7383 207.448 77.4229 204.469 81.6125L206.099 82.7715ZM213.755 64.9513L218.507 39.4633L216.541 39.0967L211.789 64.5847L213.755 64.9513ZM217.524 40.28C224.636 40.28 229.894 39.993 233.249 39.4008L232.902 37.4312C229.73 37.991 224.62 38.28 217.524 38.28V40.28ZM233.3 39.3904L235.172 38.9584L234.723 37.0096L232.851 37.4416L233.3 39.3904ZM233.963 37.8088L224.891 88.7848L226.86 89.1352L235.932 38.1592L233.963 37.8088ZM224.891 88.7879C223.194 98.4958 219.253 106.002 213.12 111.393L214.44 112.895C220.978 107.15 225.101 99.2002 226.861 89.1321L224.891 88.7879ZM213.114 111.398C207.091 116.772 199.232 119.496 189.444 119.496V121.496C199.623 121.496 207.988 118.652 214.445 112.89L213.114 111.398ZM189.444 119.496C183.492 119.496 179.002 118.454 175.864 116.481L174.799 118.175C178.382 120.426 183.299 121.496 189.444 121.496V119.496ZM175.857 116.477C172.839 114.613 171.436 112.223 171.436 109.264H169.436C169.436 113.025 171.297 116.011 174.806 118.179L175.857 116.477ZM171.436 109.264C171.436 106.224 172.366 103.852 174.167 102.051L172.753 100.637C170.521 102.868 169.436 105.776 169.436 109.264H171.436ZM174.149 102.068C175.927 100.375 178.482 99.464 181.956 99.464V97.464C178.133 97.464 175.024 98.4732 172.77 100.62L174.149 102.068ZM181.956 99.464C185.596 99.464 188.935 100.024 191.982 101.132L192.665 99.2522C189.376 98.0562 185.803 97.464 181.956 97.464V99.464ZM191.957 101.122C195.127 102.371 197.531 103.134 199.103 103.343L199.368 101.361C198.06 101.186 195.856 100.509 192.69 99.2616L191.957 101.122ZM198.242 102.242L197.954 104.834L199.942 105.054L200.23 102.462L198.242 102.242ZM199.064 103.951C197.557 103.774 195.298 103.138 192.243 101.992L191.541 103.864C194.629 105.022 197.074 105.73 198.831 105.937L199.064 103.951ZM192.243 101.992C189.066 100.8 185.875 100.2 182.676 100.2V102.2C185.62 102.2 188.573 102.752 191.541 103.864L192.243 101.992ZM182.676 100.2C179.561 100.2 177 100.903 175.128 102.444L176.399 103.988C177.792 102.841 179.838 102.2 182.676 102.2V100.2ZM175.105 102.463C173.305 104.039 172.46 106.262 172.46 108.976H174.46C174.46 106.698 175.151 105.081 176.422 103.969L175.105 102.463ZM172.46 108.976C172.46 112.02 174.135 114.379 177.153 116.044L178.119 114.292C175.568 112.885 174.46 111.116 174.46 108.976H172.46ZM177.13 116.031C180.104 117.774 183.747 118.616 188.004 118.616V116.616C184.005 116.616 180.735 115.826 178.141 114.305L177.13 116.031ZM188.004 118.616C193.211 118.616 197.509 117.044 200.798 113.831C204.066 110.64 206.243 105.923 207.418 99.8046L205.454 99.4274C204.324 105.309 202.277 109.592 199.401 112.401C196.546 115.188 192.78 116.616 188.004 116.616V118.616ZM207.42 99.7943L211.02 79.9223L209.052 79.5657L205.452 99.4377L207.42 99.7943ZM209.126 79.3287C207.161 83.632 204.726 86.7888 201.853 88.8702C198.99 90.944 195.636 91.992 191.748 91.992V93.992C196.02 93.992 199.793 92.832 203.026 90.4898C206.249 88.1552 208.878 84.688 210.945 80.1593L209.126 79.3287ZM191.748 91.992C186.375 91.992 182.343 90.4697 179.506 87.5439L178.07 88.9361C181.377 92.3463 185.984 93.992 191.748 93.992V91.992ZM179.516 87.5553C176.765 84.6265 175.324 80.4384 175.324 74.848H173.324C173.324 80.7776 174.858 85.5175 178.059 88.9247L179.516 87.5553ZM175.324 74.848C175.324 71.9979 176.161 66.7718 177.891 59.0835L175.94 58.6445C174.214 66.3162 173.324 71.7461 173.324 74.848H175.324ZM177.889 59.0924C179.717 51.2992 180.742 45.2273 180.939 40.9094L178.941 40.8186C178.753 44.9487 177.762 50.8768 175.942 58.6356L177.889 59.0924ZM267.261 90.112L268.029 90.7522L268.682 89.9684L267.886 89.3311L267.261 90.112ZM246.237 91.984L245.56 92.7199L245.567 92.7265L245.574 92.733L246.237 91.984ZM244.941 67.648L243.958 67.4667L243.956 67.4751L243.955 67.4836L244.941 67.648ZM249.693 41.872L250.676 42.0533L250.894 40.872H249.693V41.872ZM243.645 41.872L242.651 41.7616L242.528 42.872H243.645V41.872ZM243.933 39.28V38.28H243.038L242.939 39.1696L243.933 39.28ZM265.821 38.416L265.99 39.4016L266.01 39.3981L266.031 39.3938L265.821 38.416ZM267.837 37.984L268.821 38.1636L269.089 36.693L267.627 37.0062L267.837 37.984ZM257.901 92.416L256.917 92.2364L256.679 93.5432L258.001 93.411L257.901 92.416ZM265.101 88.384L265.726 87.6031L264.945 86.9784L264.32 87.7593L265.101 88.384ZM254.589 24.16L253.882 24.8671L253.882 24.8671L254.589 24.16ZM254.589 9.472L255.296 10.1791L255.304 10.1709L255.312 10.1625L254.589 9.472ZM269.277 9.472L268.554 10.1625L268.57 10.1793L268.587 10.1954L269.277 9.472ZM269.277 24.16L268.587 23.4366L268.578 23.4447L268.57 23.4529L269.277 24.16ZM266.493 89.4718C263.794 92.7107 260.47 94.296 256.461 94.296V96.296C261.092 96.296 264.968 94.4253 268.029 90.7522L266.493 89.4718ZM256.461 94.296C252.311 94.296 249.164 93.2381 246.9 91.235L245.574 92.733C248.302 95.1459 251.971 96.296 256.461 96.296V94.296ZM246.914 91.2481C244.74 89.2475 243.637 86.6442 243.637 83.344H241.637C241.637 87.1478 242.934 90.3045 245.56 92.7199L246.914 91.2481ZM243.637 83.344C243.637 82.8103 243.814 81.2752 244.202 78.6292C244.585 76.0227 245.16 72.418 245.927 67.8124L243.955 67.4836C243.186 72.094 242.609 75.7133 242.224 78.3388C241.844 80.9248 241.637 82.6297 241.637 83.344H243.637ZM245.924 67.8293L250.676 42.0533L248.71 41.6907L243.958 67.4667L245.924 67.8293ZM249.693 40.872H243.645V42.872H249.693V40.872ZM244.639 41.9824L244.927 39.3904L242.939 39.1696L242.651 41.7616L244.639 41.9824ZM243.933 40.28H250.125V38.28H243.933V40.28ZM250.125 40.28C257.239 40.28 262.542 39.9928 265.99 39.4016L265.652 37.4304C262.38 37.9912 257.219 38.28 250.125 38.28V40.28ZM266.031 39.3938L268.047 38.9618L267.627 37.0062L265.611 37.4382L266.031 39.3938ZM266.853 37.8044L256.917 92.2364L258.885 92.5956L268.821 38.1636L266.853 37.8044ZM258.001 93.411C261.166 93.0945 263.805 91.6043 265.882 89.0087L264.32 87.7593C262.557 89.9637 260.396 91.1615 257.801 91.421L258.001 93.411ZM264.476 89.1649L266.636 90.8929L267.886 89.3311L265.726 87.6031L264.476 89.1649ZM255.296 23.4529C253.47 21.6266 252.565 19.4338 252.565 16.816H250.565C250.565 19.9582 251.676 22.6614 253.882 24.8671L255.296 23.4529ZM252.565 16.816C252.565 14.1982 253.47 12.0054 255.296 10.1791L253.882 8.76489C251.676 10.9706 250.565 13.6738 250.565 16.816H252.565ZM255.312 10.1625C257.143 8.24507 259.331 7.304 261.933 7.304V5.304C258.775 5.304 256.067 6.47493 253.866 8.78152L255.312 10.1625ZM261.933 7.304C264.535 7.304 266.723 8.24507 268.554 10.1625L270 8.78152C267.799 6.47493 265.091 5.304 261.933 5.304V7.304ZM268.587 10.1954C270.504 12.0256 271.445 14.2135 271.445 16.816H273.445C273.445 13.6585 272.274 10.9504 269.967 8.74864L268.587 10.1954ZM271.445 16.816C271.445 19.4185 270.504 21.6064 268.587 23.4366L269.967 24.8834C272.274 22.6816 273.445 19.9735 273.445 16.816H271.445ZM268.57 23.4529C266.744 25.2792 264.551 26.184 261.933 26.184V28.184C265.075 28.184 267.778 27.0728 269.984 24.8671L268.57 23.4529ZM261.933 26.184C259.315 26.184 257.122 25.2792 255.296 23.4529L253.882 24.8671C256.088 27.0728 258.791 28.184 261.933 28.184V26.184ZM301.704 58.288L300.724 58.488L300.726 58.4975L300.728 58.507L301.704 58.288ZM299.976 49.504L300.962 49.3396L300.637 47.3843L299.258 48.8084L299.976 49.504ZM280.248 60.448H279.248V61.6336L280.417 61.4337L280.248 60.448ZM280.248 56.992L280.031 56.0158L279.248 56.1898V56.992H280.248ZM299.688 45.184L300.411 45.8745L300.688 45.5847V45.184H299.688ZM302.712 32.944L301.868 32.4071L301.868 32.4071L302.712 32.944ZM303.72 31.36V30.36H303.171L302.876 30.8231L303.72 31.36ZM307.176 31.36H308.176V30.36H307.176V31.36ZM309.192 43.024L308.257 43.3779L308.26 43.3864L309.192 43.024ZM313.656 51.52L312.852 52.1144L312.858 52.123L312.865 52.1314L313.656 51.52ZM318.12 60.016L317.185 60.3699L317.188 60.3784L318.12 60.016ZM312.36 88.528L311.703 87.7737L311.697 87.7798L312.36 88.528ZM277.512 90.4L276.845 91.1453L276.855 91.1538L277.512 90.4ZM275.208 69.952L275.862 70.7088L275.871 70.7005L275.881 70.6919L275.208 69.952ZM289.752 69.952L289.027 70.6407L289.045 70.6593L289.063 70.677L289.752 69.952ZM289.896 84.496L290.638 85.1669L290.638 85.1669L289.896 84.496ZM278.952 86.944L279.227 85.9825L276.552 85.2183L278.128 87.5105L278.952 86.944ZM289.032 92.552C294.068 92.552 297.964 90.6727 300.552 86.8572C303.092 83.1111 304.288 77.6177 304.288 70.528H302.288C302.288 77.4543 301.108 82.4729 298.896 85.7348C296.732 88.9273 293.5 90.552 289.032 90.552V92.552ZM304.288 70.528C304.288 66.9758 303.746 62.819 302.68 58.069L300.728 58.507C301.774 63.165 302.288 67.1682 302.288 70.528H304.288ZM302.684 58.088C301.722 53.3771 301.151 50.4696 300.962 49.3396L298.99 49.6684C299.185 50.8424 299.766 53.7909 300.724 58.488L302.684 58.088ZM299.258 48.8084C293.528 54.7256 287.138 58.2549 280.079 59.4623L280.417 61.4337C287.95 60.145 294.712 56.3784 300.694 50.1996L299.258 48.8084ZM281.248 60.448V56.992H279.248V60.448H281.248ZM280.465 57.9682C287.612 56.38 294.259 52.3196 300.411 45.8745L298.965 44.4935C293.021 50.7204 286.708 54.532 280.031 56.0158L280.465 57.9682ZM300.688 45.184V44.608H298.688V45.184H300.688ZM300.688 44.608C300.688 42.4028 301.009 40.2449 301.653 38.1312L299.739 37.5488C299.039 39.8511 298.688 42.2052 298.688 44.608H300.688ZM301.653 38.1312C302.317 35.95 302.957 34.4213 303.556 33.4809L301.868 32.4071C301.123 33.5787 300.419 35.314 299.739 37.5488L301.653 38.1312ZM303.556 33.4809L304.564 31.8969L302.876 30.8231L301.868 32.4071L303.556 33.4809ZM303.72 32.36H307.176V30.36H303.72V32.36ZM306.176 31.36C306.176 35.6914 306.865 39.7008 308.257 43.3779L310.127 42.6701C308.831 39.2432 308.176 35.4766 308.176 31.36H306.176ZM308.26 43.3864C309.626 46.8982 311.152 49.8151 312.852 52.1144L314.46 50.9256C312.896 48.8089 311.446 46.0617 310.124 42.6616L308.26 43.3864ZM312.865 52.1314C314.417 54.1398 315.862 56.8747 317.185 60.3699L319.055 59.6621C317.69 56.0533 316.159 53.1242 314.447 50.9085L312.865 52.1314ZM317.188 60.3784C318.481 63.704 319.136 67.4189 319.136 71.536H321.136C321.136 67.2051 320.447 63.24 319.052 59.6536L317.188 60.3784ZM319.136 71.536C319.136 78.06 316.671 83.4498 311.703 87.7737L313.017 89.2823C318.417 84.5822 321.136 78.644 321.136 71.536H319.136ZM311.697 87.7798C306.803 92.1195 300.899 94.296 293.928 94.296V96.296C301.357 96.296 307.741 93.9605 313.023 89.2762L311.697 87.7798ZM293.928 94.296C286.863 94.296 281.664 92.6932 278.169 89.6462L276.855 91.1538C280.848 94.6348 286.593 96.296 293.928 96.296V94.296ZM278.179 89.6548C274.706 86.5473 273.04 83.0612 273.04 79.168H271.04C271.04 83.7228 273.022 87.7247 276.845 91.1452L278.179 89.6548ZM273.04 79.168C273.04 74.9796 274.067 72.259 275.862 70.7088L274.554 69.1952C272.125 71.293 271.04 74.7164 271.04 79.168H273.04ZM275.881 70.6919C277.807 68.9409 280.062 68.072 282.696 68.072V66.072C279.57 66.072 276.833 67.1231 274.535 69.2121L275.881 70.6919ZM282.696 68.072C285.329 68.072 287.409 68.938 289.027 70.6407L290.477 69.2632C288.447 67.126 285.823 66.072 282.696 66.072V68.072ZM289.063 70.677C290.759 72.2879 291.632 74.4128 291.632 77.152H293.632C293.632 73.9392 292.585 71.2641 290.441 69.227L289.063 70.677ZM291.632 77.152C291.632 79.8001 290.802 82.0045 289.154 83.8251L290.638 85.1669C292.638 82.9555 293.632 80.2639 293.632 77.152H291.632ZM289.154 83.8251C287.532 85.6179 285.456 86.52 282.84 86.52V88.52C285.984 88.52 288.612 87.4061 290.638 85.1669L289.154 83.8251ZM282.84 86.52C281.695 86.52 280.492 86.344 279.227 85.9825L278.677 87.9055C280.1 88.312 281.489 88.52 282.84 88.52V86.52ZM278.128 87.5105C280.471 90.9191 284.183 92.552 289.032 92.552V90.552C284.665 90.552 281.657 89.1129 279.776 86.3775L278.128 87.5105ZM382.512 92.416L381.513 92.3706L381.465 93.416H382.512V92.416ZM389.712 88.384L390.336 87.6031L389.611 87.0228L388.979 87.7035L389.712 88.384ZM391.872 90.112L392.766 90.5592L393.128 89.8361L392.496 89.3311L391.872 90.112ZM387.408 93.712L386.991 92.8029L387.408 93.712ZM369.264 65.488L368.283 65.2919L369.264 65.488ZM356.448 48.928L355.627 48.3569L355.622 48.363L355.618 48.3691L356.448 48.928ZM349.104 66.928L348.134 66.6826L348.125 66.7186L348.119 66.7551L349.104 66.928ZM344.352 94V95H345.191L345.337 94.1729L344.352 94ZM327.072 94L326.087 93.8259L325.879 95H327.072V94ZM343.056 3.568L344.04 3.74205L344.27 2.44155L342.956 2.57296L343.056 3.568ZM335.856 7.6L335.231 8.38086L336.012 9.00556L336.636 8.22469L335.856 7.6ZM333.696 5.87199L332.927 5.23181L332.274 6.01555L333.071 6.65286L333.696 5.87199ZM354.72 4L354.043 4.73593L354.043 4.73593L354.72 4ZM358.032 17.104L359.016 17.2785L359.022 17.2466L359.026 17.2144L358.032 17.104ZM351.984 51.232L350.999 51.0575L352.897 51.6391L351.984 51.232ZM383.52 42.88L382.802 43.5765L382.807 43.5818L382.813 43.5871L383.52 42.88ZM385.536 73.408L386.513 73.619L386.514 73.6168L385.536 73.408ZM382.512 93.416C385.221 93.416 387.868 91.8385 390.444 89.0645L388.979 87.7035C386.563 90.3055 384.41 91.416 382.512 91.416V93.416ZM389.087 89.1649L391.247 90.8929L392.496 89.3311L390.336 87.6031L389.087 89.1649ZM390.977 89.6648C390.457 90.706 389.218 91.7824 386.991 92.8029L387.824 94.6211C390.206 93.5296 391.943 92.206 392.766 90.5592L390.977 89.6648ZM386.991 92.8029C384.83 93.7933 382.43 94.296 379.776 94.296V96.296C382.689 96.296 385.377 95.7427 387.824 94.6211L386.991 92.8029ZM379.776 94.296C375.538 94.296 372.546 93.339 370.617 91.6011C368.708 89.881 367.672 87.2414 367.672 83.488H365.672C365.672 87.6066 366.819 90.871 369.278 93.0869C371.718 95.285 375.278 96.296 379.776 96.296V94.296ZM367.672 83.488C367.672 80.2399 368.515 74.3308 370.244 65.6841L368.283 65.2919C366.556 73.9252 365.672 80.0161 365.672 83.488H367.672ZM370.244 65.6841C371.968 57.0671 372.856 51.3016 372.856 48.496H370.856C370.856 51.0664 370.016 56.6289 368.283 65.2919L370.244 65.6841ZM372.856 48.496C372.856 46.2894 372.33 44.4489 371.103 43.1619C369.868 41.8661 368.086 41.304 365.952 41.304V43.304C367.753 43.304 368.923 43.7739 369.656 44.5421C370.397 45.3191 370.856 46.5746 370.856 48.496H372.856ZM365.952 41.304C362.193 41.304 358.763 43.848 355.627 48.3569L357.269 49.4991C360.276 45.176 363.183 43.304 365.952 43.304V41.304ZM355.618 48.3691C352.555 52.9144 350.07 59.0343 348.134 66.6826L350.073 67.1734C351.977 59.6537 354.388 53.7736 357.277 49.4869L355.618 48.3691ZM348.119 66.7551L343.367 93.8271L345.337 94.1729L350.089 67.1009L348.119 66.7551ZM344.352 93H327.072V95H344.352V93ZM328.056 94.1741L344.04 3.74205L342.071 3.39394L326.087 93.8259L328.056 94.1741ZM342.956 2.57296C339.791 2.88952 337.151 4.3797 335.075 6.9753L336.636 8.22469C338.4 6.02029 340.561 4.82248 343.155 4.56303L342.956 2.57296ZM336.48 6.81913L334.32 5.09112L333.071 6.65286L335.231 8.38086L336.48 6.81913ZM334.464 6.51218C337.163 3.27333 340.486 1.688 344.496 1.688V-0.312C339.865 -0.312 335.988 1.55866 332.927 5.23181L334.464 6.51218ZM344.496 1.688C348.751 1.688 351.884 2.75023 354.043 4.73593L355.397 3.26407C352.755 0.833766 349.072 -0.312 344.496 -0.312V1.688ZM354.043 4.73593C356.19 6.71131 357.32 9.53665 357.32 13.36H359.32C359.32 9.11934 358.05 5.70468 355.397 3.26407L354.043 4.73593ZM357.32 13.36C357.32 14.068 357.229 15.2683 357.038 16.9936L359.026 17.2144C359.218 15.4837 359.32 14.188 359.32 13.36H357.32ZM357.047 16.9295L350.999 51.0575L352.968 51.4065L359.016 17.2785L357.047 16.9295ZM352.897 51.6391C354.813 47.3389 357.224 44.1853 360.094 42.1058C362.955 40.0335 366.333 38.984 370.272 38.984V36.984C365.954 36.984 362.156 38.1425 358.921 40.4862C355.695 42.8227 353.09 46.2931 351.07 50.8249L352.897 51.6391ZM370.272 38.984C375.736 38.984 379.866 40.5518 382.802 43.5765L384.237 42.1835C380.837 38.6802 376.136 36.984 370.272 36.984V38.984ZM382.813 43.5871C385.747 46.5212 387.272 50.6555 387.272 56.128H389.272C389.272 50.2725 387.629 45.5748 384.227 42.1729L382.813 43.5871ZM387.272 56.128C387.272 58.9814 386.385 64.6392 384.558 73.1992L386.514 73.6168C388.334 65.0888 389.272 59.2266 389.272 56.128H387.272ZM384.558 73.197C382.732 81.6555 381.709 88.0591 381.513 92.3706L383.511 92.4614C383.699 88.3249 384.691 82.0565 386.513 73.619L384.558 73.197ZM435.692 84.208L436.686 84.1047L436.365 81.0138L434.823 83.7119L435.692 84.208ZM404.3 89.536L403.575 90.2252L403.584 90.2343L403.592 90.2431L404.3 89.536ZM406.748 47.344L407.505 47.9967L407.505 47.9967L406.748 47.344ZM441.596 47.92L440.651 48.2485L442.582 48.0844L441.596 47.92ZM443.18 39.28V38.28H442.36L442.199 39.0839L443.18 39.28ZM459.02 38.416L459.184 39.4024L459.214 39.3973L459.244 39.3904L459.02 38.416ZM460.892 37.984L461.875 38.1636L462.148 36.6677L460.667 37.0096L460.892 37.984ZM450.956 92.416L449.972 92.2364L449.733 93.5432L451.055 93.411L450.956 92.416ZM458.156 88.384L458.78 87.6031L457.999 86.9784L457.375 87.7593L458.156 88.384ZM460.316 90.112L461.084 90.7522L461.737 89.9684L460.94 89.3311L460.316 90.112ZM416.54 89.536L415.686 90.0575L415.703 90.0857L415.723 90.1127L416.54 89.536ZM428.78 88.24L428.062 87.5435L428.059 87.5469L428.78 88.24ZM436.412 75.856L437.345 76.215L437.37 76.1494L437.386 76.0809L436.412 75.856ZM437.996 66.928L437.011 66.7508L437.01 66.7588L437.009 66.7669L437.996 66.928ZM440.156 55.12L441.138 55.3043L441.163 55.1737L441.152 55.0413L440.156 55.12ZM437.132 45.616L436.29 46.1568L436.29 46.1568L437.132 45.616ZM419.276 54.256L420.221 54.582L420.222 54.5787L419.276 54.256ZM449.516 94.296C445.423 94.296 442.413 93.3995 440.349 91.7439C438.304 90.1038 437.05 87.6073 436.686 84.1047L434.697 84.3113C435.101 88.2007 436.535 91.2482 439.098 93.3041C441.642 95.3445 445.16 96.296 449.516 96.296V94.296ZM434.823 83.7119C430.711 90.9076 425.665 94.296 419.708 94.296V96.296C426.614 96.296 432.224 92.2924 436.56 84.7041L434.823 83.7119ZM419.708 94.296C413.488 94.296 408.625 92.4472 405.007 88.8289L403.592 90.2431C407.654 94.3048 413.063 96.296 419.708 96.296V94.296ZM405.024 88.8468C401.504 85.146 399.684 79.9486 399.684 73.12H397.684C397.684 80.3074 399.607 86.054 403.575 90.2252L405.024 88.8468ZM399.684 73.12C399.684 62.3359 402.331 54.0028 407.505 47.9967L405.99 46.6913C400.412 53.1652 397.684 62.0161 397.684 73.12H399.684ZM407.505 47.9967C412.683 41.9865 419.362 38.984 427.628 38.984V36.984C418.805 36.984 411.564 40.2215 405.99 46.6913L407.505 47.9967ZM427.628 38.984C430.972 38.984 433.672 39.7723 435.796 41.2829C437.919 42.7935 439.551 45.0873 440.651 48.2485L442.54 47.5915C441.336 44.1287 439.488 41.4545 436.955 39.6531C434.423 37.8517 431.291 36.984 427.628 36.984V38.984ZM442.582 48.0844C443.06 45.2151 443.586 42.3456 444.16 39.4761L442.199 39.0839C441.621 41.9744 441.091 44.8649 440.609 47.7556L442.582 48.0844ZM443.18 40.28C450.295 40.28 455.643 39.9926 459.184 39.4024L458.855 37.4296C455.484 37.9914 450.272 38.28 443.18 38.28V40.28ZM459.244 39.3904L461.116 38.9584L460.667 37.0096L458.795 37.4416L459.244 39.3904ZM459.908 37.8044L449.972 92.2364L451.939 92.5956L461.875 38.1636L459.908 37.8044ZM451.055 93.411C454.221 93.0945 456.86 91.6043 458.936 89.0087L457.375 87.7593C455.611 89.9637 453.45 91.1615 450.856 91.421L451.055 93.411ZM457.531 89.1649L459.691 90.8929L460.94 89.3311L458.78 87.6031L457.531 89.1649ZM459.547 89.4718C456.848 92.7107 453.525 94.296 449.516 94.296V96.296C454.146 96.296 458.023 94.4253 461.084 90.7522L459.547 89.4718ZM413.956 80.464C413.956 84.8025 414.474 88.0744 415.686 90.0575L417.393 89.0145C416.493 87.5416 415.956 84.7655 415.956 80.464H413.956ZM415.723 90.1127C417.093 92.0538 419.152 92.984 421.724 92.984V90.984C419.687 90.984 418.29 90.2822 417.356 88.9593L415.723 90.1127ZM421.724 92.984C424.411 92.984 427.006 91.5272 429.5 88.9331L428.059 87.5469C425.753 89.9448 423.644 90.984 421.724 90.984V92.984ZM429.497 88.9365C432.774 85.5602 435.385 81.311 437.345 76.215L435.478 75.497C433.598 80.385 431.121 84.3918 428.062 87.5435L429.497 88.9365ZM437.386 76.0809C437.683 74.7944 438.216 71.7827 438.982 67.0891L437.009 66.7669C436.239 71.4813 435.716 74.4216 435.437 75.6311L437.386 76.0809ZM438.98 67.1052C439.843 62.3064 440.563 58.373 441.138 55.3043L439.173 54.9357C438.596 58.011 437.876 61.9496 437.011 66.7508L438.98 67.1052ZM441.152 55.0413C440.853 51.2529 439.802 47.9211 437.973 45.0752L436.29 46.1568C437.917 48.6869 438.882 51.6911 439.159 55.1987L441.152 55.0413ZM437.973 45.0752C436.11 42.1774 433.666 40.584 430.652 40.584V42.584C432.821 42.584 434.697 43.6786 436.29 46.1568L437.973 45.0752ZM430.652 40.584C427.957 40.584 425.578 41.8082 423.535 44.084C421.513 46.3371 419.79 49.6467 418.329 53.9333L420.222 54.5787C421.641 50.4173 423.254 47.3909 425.024 45.42C426.773 43.4718 428.642 42.584 430.652 42.584V40.584ZM418.33 53.93C415.413 62.3903 413.956 71.2367 413.956 80.464H415.956C415.956 71.4513 417.378 62.8257 420.221 54.582L418.33 53.93Z" fill="#120202" fill-opacity="0.8"/>
</g>
<defs>
<filter id="filter0_d_2_4" x="0.631989" y="0.687988" width="464.26" height="127.808" filterUnits="userSpaceOnUse" color-interpolation-filters="sRGB">
<feFlood flood-opacity="0" result="BackgroundImageFix"/>
<feColorMatrix in="SourceAlpha" type="matrix" values="0 0 0 0 0 0 0 0 0 0 0 0 0 0 0 0 0 0 127 0" result="hardAlpha"/>
<feOffset dy="4"/>
<feGaussianBlur stdDeviation="2"/>
<feComposite in2="hardAlpha" operator="out"/>
<feColorMatrix type="matrix" values="0 0 0 0 0 0 0 0 0 0 0 0 0 0 0 0 0 0 0.25 0"/>
<feBlend mode="normal" in2="BackgroundImageFix" result="effect1_dropShadow_2_4"/>
<feBlend mode="normal" in="SourceGraphic" in2="effect1_dropShadow_2_4" result="shape"/>
</filter>
</defs>
</svg>
